<svg id="Layer_1" enable-background="new 0 0 256 256" height="512" viewBox="0 0 256 256" width="512" xmlns="http://www.w3.org/2000/svg"><g><g><path d="m33.468 115.162v16.999c0 2.422-1.731 4.532-4.123 4.918-12.221 1.972-21.555 12.57-21.555 25.348s9.334 23.377 21.556 25.349c2.391.386 4.123 2.496 4.123 4.918v11.999c0 2.761 2.239 5 5 5h89.531v-94.532h-94.532z" fill="#ff4a73"/><path d="m128 37.629v-16.999h-89.532c-2.761 0-5 2.239-5 5v11.998c0 2.422 1.731 4.532 4.123 4.918 12.222 1.972 21.556 12.571 21.556 25.349s-9.334 23.377-21.556 25.349c-2.391.386-4.123 2.496-4.123 4.918v17h94.532v-16.999c0-2.422 1.731-4.532 4.123-4.918 12.222-1.972 21.556-12.57 21.556-25.349s-9.334-23.377-21.556-25.349c-2.392-.386-4.123-2.496-4.123-4.918z" fill="#5fcdff"/><path d="m222.532 132.161v-16.999h-94.532v94.532h16.999c2.422 0 4.532 1.731 4.918 4.123 1.972 12.222 12.571 21.556 25.349 21.556 12.781 0 23.38-9.337 25.35-21.562.385-2.388 2.485-4.116 4.904-4.116h12.012c2.761 0 5-2.238 5-5v-11.999c0-2.422 1.731-4.532 4.123-4.918 12.222-1.972 21.556-12.571 21.556-25.349s-9.334-23.377-21.556-25.349c-2.392-.387-4.123-2.497-4.123-4.919z" fill="#f9d335"/><path d="m248.21 67.895c0-12.778-9.333-23.376-21.555-25.349-2.391-.386-4.122-2.496-4.122-4.918v-12c0-2.761-2.239-5-5-5h-11.594c-2.761 0-5 2.239-5 5v5.595c0 1.292-.505 2.535-1.394 3.471-22.413 23.593-49.961 8.072-49.961-13.882v-.184h-21.584v17.005c0 2.423 1.731 4.532 4.123 4.918 12.224 1.971 21.56 12.563 21.56 25.344s-9.336 23.381-21.56 25.354c-2.391.386-4.123 2.496-4.123 4.918v16.995h94.533v-17c0-2.422 1.731-4.532 4.122-4.918 12.221-1.973 21.555-12.571 21.555-25.349z" fill="#44c7b6"/><path d="m53.47 209.69h-15c-2.76 0-5-2.24-5-5v-12c0-2.42-1.73-4.53-4.12-4.91-12.23-1.98-21.56-12.57-21.56-25.35s9.33-23.38 21.56-25.35c2.39-.39 4.12-2.5 4.12-4.92v-17h15v17c0 2.42-1.73 4.53-4.12 4.92-12.23 1.97-21.56 12.57-21.56 25.35s9.33 23.37 21.56 25.35c2.39.38 4.12 2.49 4.12 4.91v12c0 2.76 2.24 5 5 5z" fill="#f973a3"/><path d="m74.15 67.9c0 12.77-9.34 23.37-21.56 25.34-2.39.39-4.12 2.5-4.12 4.92v17h-15v-17c0-2.42 1.73-4.53 4.12-4.92 12.22-1.97 21.56-12.57 21.56-25.34 0-12.78-9.34-23.38-21.56-25.35-2.39-.39-4.12-2.5-4.12-4.92v-12c0-2.76 2.24-5 5-5h15c-2.76 0-5 2.24-5 5v12c0 2.42 1.73 4.53 4.12 4.92 12.22 1.97 21.56 12.57 21.56 25.35z" fill="#73d7f9"/><path d="m128 115.16h15v94.53h-15z" fill="#f9e27d"/><path d="m182.77 234.25c-2.37.73-4.89 1.12-7.5 1.12-12.78 0-23.38-9.33-25.35-21.55-.39-2.4-2.5-4.13-4.92-4.13h15c2.42 0 4.53 1.73 4.92 4.13 1.57 9.72 8.6 17.62 17.85 20.43z" fill="#f9e27d"/><path d="m168.68 67.9c0 12.78-9.33 23.38-21.56 25.35-2.39.38-4.12 2.49-4.12 4.92v16.99h-15v-16.99c0-2.43 1.73-4.54 4.12-4.92 12.23-1.97 21.56-12.57 21.56-25.35 0-12.79-9.33-23.38-21.56-25.35-2.39-.38-4.12-2.49-4.12-4.92v-17h15v17c0 2.43 1.73 4.54 4.12 4.92 12.23 1.97 21.56 12.56 21.56 25.35z" fill="#4bdbc3"/><path d="m153.68 67.9c0 12.77-9.34 23.37-21.56 25.34-2.39.39-4.12 2.5-4.12 4.92v17h-15v-17c0-2.42 1.73-4.53 4.12-4.92 12.22-1.97 21.56-12.57 21.56-25.34 0-12.78-9.34-23.38-21.56-25.35-2.39-.39-4.12-2.5-4.12-4.92v-17h15v17c0 2.42 1.73 4.53 4.12 4.92 12.22 1.97 21.56 12.57 21.56 25.35z" fill="#30b6ff"/><path d="m248.21 162.43c0 12.78-9.33 23.37-21.56 25.35-2.39.38-4.12 2.49-4.12 4.91v12c0 2.76-2.24 5-5 5h-12.01c-2.42 0-4.52 1.73-4.9 4.12-1.97 12.22-12.57 21.56-25.35 21.56-2.61 0-5.13-.39-7.5-1.12 9.25-2.82 16.28-10.72 17.85-20.44.38-2.39 2.48-4.12 4.9-4.12h12.01c2.76 0 5-2.24 5-5v-12c0-2.42 1.73-4.53 4.12-4.91 12.23-1.98 21.56-12.57 21.56-25.35s-9.33-23.38-21.56-25.35c-2.39-.39-4.12-2.5-4.12-4.92v-17h15v17c0 2.42 1.73 4.53 4.12 4.92 12.23 1.97 21.56 12.57 21.56 25.35z" fill="#f2c300"/><path d="m248.21 67.9c0 12.77-9.33 23.37-21.55 25.34-2.4.39-4.13 2.5-4.13 4.92v17h-15v-17c0-2.42 1.73-4.53 4.13-4.92 12.22-1.97 21.55-12.57 21.55-25.34 0-12.78-9.33-23.38-21.55-25.35-2.4-.39-4.13-2.5-4.13-4.92v-12c0-2.16-1.37-4-3.29-4.7.53-.2 1.1-.3 1.7-.3h11.59c2.76 0 5 2.24 5 5v12c0 2.42 1.73 4.53 4.13 4.92 12.22 1.97 21.55 12.57 21.55 25.35z" fill="#3bb2a0"/><path d="m113 115.16h15v94.53h-15z" fill="#ea2a6a"/></g><g fill="#5f266d"><path d="m227.292 133.13c-.434-.07-.76-.487-.76-.969v-16.989c0-.003.001-.006.001-.01v-17c0-.482.327-.899.76-.969 14.438-2.33 24.917-14.652 24.917-29.297s-10.479-26.967-24.917-29.297c-.433-.07-.759-.487-.759-.969v-12c0-4.962-4.038-9-9-9h-11.594c-4.962 0-9 4.038-9 9v5.595c0 .258-.107.52-.294.716-9.088 9.566-19.809 12.854-29.414 9.019-8.291-3.31-13.648-11.218-13.648-20.146v-.184c0-2.209-1.791-4-4-4-11.035 0-100.579.001-111.115.001-4.962 0-9 4.038-9 9v11.999c0 4.438 3.148 8.167 7.485 8.867 10.542 1.701 18.193 10.701 18.193 21.4s-7.651 19.699-18.193 21.4c-4.337.7-7.485 4.429-7.485 8.867v17 16.999c0 .482-.327.899-.76.969-14.438 2.33-24.918 14.651-24.918 29.297s10.479 26.968 24.918 29.298c.433.07.759.487.759.969v11.999c0 4.962 4.038 9 9 9h106.531c.482 0 .899.327.969.76 2.33 14.438 14.651 24.918 29.297 24.918 14.65 0 26.972-10.482 29.299-24.925.069-.429.479-.752.955-.752h12.013c4.962 0 9-4.038 9-9v-11.999c0-.482.327-.899.76-.969 14.438-2.33 24.918-14.652 24.918-29.298-.001-14.649-10.48-26.971-24.918-29.3zm-95.292-108.501h13.825c1.351 10.619 8.289 19.708 18.44 23.76 12.615 5.038 26.888.948 38.18-10.939 1.608-1.693 2.494-3.904 2.494-6.226v-5.595c0-.551.449-1 1-1h11.594c.551 0 1 .449 1 1v12c0 4.438 3.148 8.167 7.485 8.867 10.541 1.702 18.191 10.702 18.191 21.4s-7.651 19.698-18.192 21.4c-4.337.7-7.485 4.429-7.485 8.867v13h-86.532v-12.996c0-.482.327-.899.76-.969 14.441-2.33 24.923-14.654 24.923-29.303 0-8.662-3.669-16.51-9.654-21.959-4.133-3.765-9.37-6.386-15.269-7.338-.434-.07-.76-.487-.76-.969zm-8 181.064h-85.532c-.551 0-1-.449-1-1v-11.999c0-4.438-3.148-8.167-7.485-8.867-10.542-1.702-18.192-10.702-18.192-21.4s7.651-19.699 18.193-21.4c4.337-.7 7.485-4.429 7.485-8.867v-12.999h86.531zm0-107.53v.004 12.995h-86.532v-13c0-.482.327-.899.76-.969 14.439-2.33 24.918-14.652 24.918-29.298s-10.479-26.968-24.918-29.297c-.433-.07-.76-.487-.76-.969v-11.999c0-.551.449-1 1-1h85.532v12.999.004c0 4.439 3.149 8.168 7.486 8.867 4.271.689 8.053 2.589 11.059 5.3 4.412 3.983 7.133 9.731 7.133 16.095 0 10.699-7.651 19.699-18.192 21.4-4.338.7-7.486 4.429-7.486 8.868zm102.018 85.665c-4.338.699-7.486 4.428-7.486 8.867v11.999c0 .551-.448 1-1 1h-12.012c-4.432 0-8.155 3.146-8.853 7.48-1.699 10.544-10.699 18.198-21.401 18.198-10.699 0-19.699-7.651-21.4-18.193-.7-4.337-4.429-7.485-8.867-7.485h-12.999v-86.532h86.532v12.999c0 4.438 3.148 8.167 7.485 8.867 10.542 1.701 18.192 10.701 18.192 21.4s-7.65 19.698-18.191 21.4z"/><path d="m106.344 135.75h3.459c2.209 0 4-1.791 4-4s-1.791-4-4-4h-3.459c-2.209 0-4 1.791-4 4s1.791 4 4 4z"/><path d="m77.344 135.75h14c2.209 0 4-1.791 4-4s-1.791-4-4-4h-14c-2.209 0-4 1.791-4 4s1.791 4 4 4z"/></g></g></svg>